<svg width="282" height="146" viewBox="0 0 282 146" fill="none" xmlns="http://www.w3.org/2000/svg">
<path d="M122.339 60.0312C122.502 58.6563 124.498 58.6563 124.661 60.0312L126.029 71.5659C127.797 86.4602 139.54 98.2032 154.434 99.9705L165.969 101.339C167.344 101.502 167.344 103.498 165.969 103.661L154.434 105.029C139.54 106.797 127.797 118.54 126.029 133.434L124.661 144.969C124.498 146.344 122.502 146.344 122.339 144.969L120.971 133.434C119.203 118.54 107.46 106.797 92.5659 105.029L81.0312 103.661C79.6563 103.498 79.6563 101.502 81.0312 101.339L92.5659 99.9705C107.46 98.2032 119.203 86.4602 120.971 71.5659L122.339 60.0312Z" fill="#2ACB35"/>
<path d="M149.5 17.0001L149.696 15.0097L149.5 17.0001ZM268.966 105.712C269.911 106.283 271.141 105.98 271.712 105.034L281.02 89.6278C281.591 88.6824 281.288 87.4529 280.342 86.8817C279.397 86.3105 278.167 86.6139 277.596 87.5593L269.322 101.254L255.628 92.9802C254.682 92.409 253.453 92.7124 252.882 93.6578C252.311 94.6032 252.614 95.8327 253.559 96.4038L268.966 105.712ZM2.00005 72.0001C3.6326 73.1554 3.63214 73.156 3.63187 73.1564C3.63201 73.1562 3.6319 73.1564 3.63218 73.156C3.63274 73.1552 3.634 73.1534 3.63596 73.1507C3.63988 73.1452 3.64659 73.1358 3.65611 73.1226C3.67514 73.0962 3.70538 73.0545 3.74687 72.9981C3.82984 72.8851 3.95777 72.7132 4.13095 72.4864C4.47733 72.0328 5.00461 71.3601 5.71508 70.5024C7.13613 68.7869 9.28919 66.332 12.1923 63.4096C17.9996 57.5639 26.8011 49.8547 38.7416 42.4498C62.6013 27.653 99.0419 14.0385 149.304 18.9905L149.696 15.0097C98.458 9.96166 61.1486 23.8472 36.6334 39.0504C24.3864 46.6455 15.3442 54.5613 9.3546 60.5905C6.35933 63.6056 4.12568 66.1507 2.63463 67.9508C1.88904 68.8509 1.32893 69.565 0.951917 70.0587C0.763404 70.3055 0.620648 70.4973 0.523351 70.6297C0.474702 70.696 0.437416 70.7473 0.411456 70.7833C0.398475 70.8014 0.388327 70.8155 0.381004 70.8258C0.377343 70.8309 0.374388 70.835 0.372139 70.8382C0.371016 70.8398 0.369858 70.8414 0.369296 70.8422C0.368316 70.8436 0.367511 70.8447 2.00005 72.0001ZM149.304 18.9905C199.507 23.9366 229.167 45.4164 246.289 65.5459C254.867 75.63 260.32 85.4031 263.626 92.6432C265.278 96.2624 266.392 99.245 267.091 101.312C267.44 102.345 267.685 103.149 267.841 103.689C267.919 103.959 267.975 104.162 268.01 104.296C268.028 104.362 268.041 104.411 268.049 104.442C268.053 104.457 268.056 104.468 268.057 104.474C268.058 104.478 268.058 104.479 268.059 104.48C268.059 104.481 268.059 104.48 268.059 104.481C268.059 104.48 268.058 104.479 270 104C271.942 103.521 271.941 103.519 271.941 103.518C271.941 103.517 271.94 103.515 271.94 103.513C271.939 103.509 271.938 103.504 271.936 103.498C271.933 103.485 271.929 103.468 271.923 103.446C271.912 103.403 271.896 103.342 271.875 103.262C271.832 103.103 271.769 102.873 271.683 102.577C271.511 101.984 271.249 101.124 270.88 100.032C270.143 97.8489 268.979 94.7378 267.265 90.9819C263.836 83.4721 258.196 73.3702 249.336 62.9542C231.583 42.0837 200.993 20.0636 149.696 15.0097L149.304 18.9905Z" fill="#3FD049"/>
</svg>
